# Blender 4.2.1 LTS
# www.blender.org
mtllib spot_simplified.mtl
o spot_triangulated
v 0.302186 -0.452452 -0.239763
v 0.091496 -0.795920 1.146849
v 0.448651 -0.756034 0.477449
v 0.585065 -0.679958 1.202727
v 0.263630 0.242263 -0.297278
v 0.428991 1.190505 -0.668282
v 0.482552 -1.188963 0.271700
v 0.461080 0.964697 -0.219807
v 0.000000 0.551303 -1.135306
v 0.000000 0.179187 -0.789172
v 0.000000 -0.585340 1.565425
v 0.000000 0.568668 0.073600
v 0.000000 0.341984 1.403306
v 0.351922 1.305886 -0.373118
v 0.000000 -0.600690 -0.223010
v 0.000000 -0.125762 1.748990
v -0.302186 -0.452452 -0.239763
v -0.091496 -0.795920 1.146849
v -0.448651 -0.756034 0.477449
v -0.263630 0.242263 -0.297278
v -0.549686 0.266743 -0.945593
v -0.428991 1.190505 -0.668282
v -0.482552 -1.188963 0.271700
v -0.461080 0.964697 -0.219807
v -0.351922 1.305886 -0.373118
v 0.680608 -0.218386 0.250522
v 0.527934 -0.068418 1.462632
v 0.173434 -1.179708 0.052065
v 0.533791 -1.145957 -0.189971
v 0.321468 -1.201452 1.140538
v 0.571826 -1.140609 1.476780
v 0.142598 -0.696423 0.043511
v 0.870732 1.170278 -0.313656
v 0.352181 0.464877 0.417787
v 0.248814 0.294398 1.391716
v 0.275664 0.543535 0.050852
v 0.470388 0.575435 -1.087495
v 0.549686 0.266743 -0.945593
v 0.260242 1.361130 -0.644421
v 0.140257 1.407378 -0.384799
v 0.000000 1.440932 -0.656741
v 0.353350 1.676739 -0.463063
v 0.096055 -0.132897 1.714863
v -0.585065 -0.679958 1.202727
v -0.680608 -0.218386 0.250522
v -0.527934 -0.068418 1.462632
v -0.533791 -1.145957 -0.189971
v -0.173434 -1.179708 0.052065
v -0.321468 -1.201452 1.140538
v -0.571826 -1.140609 1.476780
v -0.165604 -1.179649 1.502679
v -0.142598 -0.696423 0.043511
v -0.870732 1.170278 -0.313656
v -0.352181 0.464877 0.417787
v -0.248814 0.294398 1.391716
v -0.260242 1.361130 -0.644421
v -0.470388 0.575435 -1.087495
v 0.000000 1.407190 -0.363140
v -0.353350 1.676739 -0.463063
v -0.096055 -0.132897 1.714863
vn 0.2218 -0.9732 0.0604
vn 0.5005 0.0319 0.8651
vn 0.9920 0.0422 0.1188
vn 0.8916 -0.4361 -0.1219
vn 0.7600 0.6217 0.1895
vn 0.9054 0.4200 0.0621
vn 0.8471 0.4686 -0.2508
vn 0.8290 -0.4367 0.3493
vn -0.6970 -0.4045 0.5921
vn 0.7840 -0.3339 -0.5233
vn -0.5268 -0.2346 -0.8170
vn -0.0393 -0.0846 -0.9956
vn -0.5398 -0.3954 0.7431
vn -0.8452 -0.0633 -0.5307
vn -0.8192 -0.0421 0.5720
vn 0.9712 0.1753 -0.1613
vn 0.0028 0.4106 0.9118
vn 0.1253 0.9780 0.1667
vn 0.1929 0.9628 0.1890
vn 0.0618 0.5028 -0.8622
vn 0.1838 0.4657 -0.8657
vn -0.0144 -0.0833 -0.9964
vn 0.1674 -0.9852 0.0366
vn -0.0994 -0.6777 -0.7286
vn 0.1129 -0.3909 -0.9135
vn 0.1145 0.4589 0.8811
vn 0.1347 0.4629 0.8761
vn 0.2729 0.9180 -0.2876
vn 0.9386 -0.0847 -0.3344
vn -0.7628 0.4763 -0.4374
vn 0.3957 0.4598 0.7950
vn 0.1456 0.5631 0.8134
vn 0.3133 0.5644 0.7637
vn 0.2894 -0.3550 0.8889
vn -0.2218 -0.9732 0.0604
vn -0.5005 0.0319 0.8651
vn -0.9920 0.0422 0.1188
vn -0.8916 -0.4361 -0.1219
vn -0.7600 0.6217 0.1895
vn -0.9054 0.4200 0.0621
vn -0.8471 0.4686 -0.2508
vn -0.8802 0.2585 0.3981
vn 0.8242 -0.4623 -0.3269
vn -0.7840 -0.3339 -0.5233
vn -0.0809 -0.1929 0.9779
vn 0.5268 -0.2346 -0.8170
vn 0.0393 -0.0846 -0.9956
vn 0.5398 -0.3954 0.7431
vn 0.8452 -0.0633 -0.5307
vn 0.8192 -0.0421 0.5720
vn -0.9712 0.1753 -0.1613
vn -0.0028 0.4106 0.9118
vn -0.1253 0.9780 0.1667
vn -0.1929 0.9628 0.1890
vn -0.0618 0.5028 -0.8622
vn -0.1838 0.4657 -0.8657
vn 0.0144 -0.0833 -0.9964
vn -0.0000 -0.9919 0.1272
vn -0.1674 -0.9852 0.0366
vn 0.0994 -0.6777 -0.7286
vn -0.1129 -0.3909 -0.9135
vn -0.2729 0.9180 -0.2876
vn -0.9386 -0.0847 -0.3344
vn 0.5786 0.5279 -0.6217
vn -0.0000 -0.9982 -0.0595
vn -0.0000 -0.9763 -0.2165
vn -0.3957 0.4598 0.7950
vn -0.1456 0.5631 0.8134
vn -0.3133 0.5644 0.7637
vn -0.2894 -0.3550 0.8889
vn 0.9919 0.0418 0.1198
vn 0.9730 0.1568 -0.1693
vn 0.0334 -0.9955 -0.0890
vn -0.7028 -0.4600 0.5426
vn 0.0960 0.0699 -0.9929
vn 0.8577 -0.1644 0.4872
vn 0.9762 -0.1972 0.0900
vn 0.8364 0.1215 -0.5345
vn 0.9914 0.1310 -0.0050
vn 0.9270 -0.2073 0.3125
vn 0.3184 -0.8373 -0.4444
vn -0.6672 0.5121 0.5409
vn 0.8878 -0.3029 0.3465
vn 0.1045 0.9767 0.1876
vn 0.4303 0.5280 -0.7322
vn 0.3644 -0.7972 -0.4813
vn 0.1663 0.4479 0.8785
vn 0.1997 0.4660 0.8619
vn 0.0163 0.9933 0.1142
vn 0.2945 0.9551 -0.0340
vn 0.7014 0.7067 -0.0931
vn 0.0592 0.2351 0.9702
vn -0.7997 0.4477 -0.4000
vn -0.9919 0.0418 0.1198
vn -0.5352 0.7854 -0.3108
vn -0.0334 -0.9955 -0.0890
vn -0.1017 -0.9894 0.1033
vn 0.9899 -0.0883 0.1110
vn -0.0960 0.0699 -0.9929
vn -0.8577 -0.1644 0.4872
vn -0.9762 -0.1972 0.0900
vn -0.8364 0.1215 -0.5345
vn -0.9914 0.1310 -0.0050
vn -0.7219 -0.4527 0.5234
vn -0.3184 -0.8373 -0.4444
vn 0.6672 0.5121 0.5409
vn -0.8878 -0.3029 0.3465
vn -0.4303 0.5280 -0.7322
vn -0.3644 -0.7972 -0.4813
vn -0.0000 -0.0878 -0.9961
vn -0.1653 0.4556 0.8747
vn -0.1532 0.4454 0.8821
vn -0.2867 0.9518 0.1094
vn -0.7014 0.7067 -0.0931
vn -0.0949 0.2343 0.9675
vn 0.4560 -0.8311 0.3184
vt 0.752730 0.654341
vt 0.821944 0.661052
vt 0.743680 0.680553
vt 0.699942 0.741881
vt 0.580766 0.704184
vt 0.724396 0.672130
vt 0.838283 0.694636
vt 0.704222 0.822884
vt 0.875708 0.774592
vt 0.952545 0.674142
vt 0.213722 0.203519
vt 0.113321 0.170757
vt 0.198586 0.152494
vt 0.894693 0.930041
vt 0.892033 0.947685
vt 0.875342 0.914860
vt 0.967700 0.943717
vt 0.124881 0.956385
vt 0.041603 0.926374
vt 0.129719 0.929881
vt 0.118323 0.877715
vt 0.164256 0.949126
vt 0.211982 0.947529
vt 0.061645 0.955784
vt 0.222596 0.233005
vt 0.179212 0.301434
vt 0.092571 0.485815
vt 0.033646 0.556806
vt 0.083981 0.531519
vt 0.690798 0.876595
vt 0.955787 0.778646
vt 0.268973 0.233489
vt 0.216729 0.343722
vt 0.268708 0.351121
vt 0.865295 0.644990
vt 0.867494 0.627589
vt 0.269547 0.174732
vt 0.270185 0.803188
vt 0.207596 0.801027
vt 0.305761 0.508675
vt 0.223725 0.490591
vt 0.078178 0.585915
vt 0.045104 0.415492
vt 0.204143 0.406148
vt 0.159885 0.425874
vt 0.142125 0.453366
vt 0.502007 0.691479
vt 0.698374 0.634981
vt 0.759781 0.348047
vt 0.749160 0.321849
vt 0.827850 0.339002
vt 0.702481 0.261673
vt 0.730275 0.330102
vt 0.577145 0.305307
vt 0.842596 0.305126
vt 0.702336 0.180342
vt 0.876051 0.224886
vt 0.953931 0.321966
vt 0.324373 0.203255
vt 0.342223 0.152753
vt 0.427715 0.172847
vt 0.360914 0.904695
vt 0.382805 0.893004
vt 0.398551 0.917954
vt 0.373065 0.934104
vt 0.295271 0.923391
vt 0.458832 0.947400
vt 0.644959 0.966570
vt 0.640121 0.940064
vt 0.728238 0.936556
vt 0.651517 0.887896
vt 0.557859 0.957711
vt 0.605585 0.959306
vt 0.708196 0.965966
vt 0.357930 0.301246
vt 0.315042 0.233008
vt 0.414181 0.532315
vt 0.457744 0.548105
vt 0.505762 0.554598
vt 0.685307 0.126086
vt 0.956230 0.223218
vt 0.320925 0.343637
vt 0.872902 0.371614
vt 0.871351 0.354255
vt 0.965177 0.356616
vt 0.976770 0.356022
vt 0.486973 0.515986
vt 0.490544 0.408314
vt 0.376545 0.421348
vt 0.331139 0.402547
vt 0.395972 0.448562
vt 0.865649 0.430847
vt 0.865137 0.563459
vt 0.672809 0.447491
vt 0.963472 0.496785
vt 0.498740 0.320615
vt 0.706619 0.370023
vt 0.950696 0.744267
vt 0.797409 0.967875
vt 0.178617 0.901572
vt 0.111886 0.241873
vt 0.844879 0.643031
vt 0.735688 0.648112
vt 0.127110 0.661360
vt 0.155761 0.493970
vt 0.268704 0.485885
vt 0.252031 0.378279
vt 0.169028 0.364990
vt 0.638065 0.501834
vt 0.674149 0.551344
vt 0.591224 0.911753
vt 0.427072 0.244535
vt 0.851383 0.356292
vt 0.743487 0.354682
vt 0.410299 0.661360
vt 0.381648 0.493970
vt 0.285616 0.378430
vt 0.367984 0.359285
s 0
usemtl material_1
f 2/1/1 3/2/1 4/3/1
f 27/4/2 43/5/2 31/6/2
f 31/6/3 4/3/3 27/4/3
f 26/7/4 4/3/4 3/2/4
f 35/8/5 27/4/5 34/9/5
f 26/7/6 34/9/6 27/4/6
f 5/10/7 34/9/7 26/7/7
f 38/11/8 36/12/8 5/13/8
f 30/14/9 31/15/9 2/16/9
f 30/14/10 4/17/10 31/15/10
f 28/18/11 1/19/11 29/20/11
f 5/21/12 29/20/12 1/19/12
f 28/18/13 7/22/13 3/23/13
f 1/19/14 28/18/14 32/24/14
f 3/23/15 32/24/15 28/18/15
f 38/11/16 37/25/16 6/26/16
f 14/27/17 8/28/17 33/29/17
f 13/30/18 34/9/18 12/31/18
f 34/9/19 13/30/19 35/8/19
f 37/25/20 9/32/20 39/33/20
f 41/34/21 39/33/21 9/32/21
f 5/10/22 1/35/22 15/36/22
f 5/13/23 10/37/23 38/11/23
f 9/32/24 38/11/24 10/37/24
f 38/11/25 9/32/25 37/25/25
f 12/38/26 36/39/26 58/40/26
f 40/41/27 58/40/27 36/39/27
f 33/29/28 6/42/28 14/27/28
f 14/43/29 39/44/29 42/45/29
f 40/46/30 42/45/30 39/44/30
f 43/5/31 27/4/31 35/8/31
f 35/8/32 13/30/32 43/5/32
f 16/47/33 43/5/33 13/30/33
f 16/47/34 11/48/34 43/5/34
f 18/49/35 44/50/35 19/51/35
f 46/52/36 50/53/36 60/54/36
f 50/53/37 46/52/37 44/50/37
f 45/55/38 19/51/38 44/50/38
f 55/56/39 54/57/39 46/52/39
f 45/55/40 46/52/40 54/57/40
f 20/58/41 45/55/41 54/57/41
f 21/59/42 20/60/42 12/61/42
f 49/62/43 18/63/43 51/64/43
f 49/62/44 50/65/44 44/66/44
f 51/64/45 60/67/45 50/65/45
f 48/68/46 47/69/46 17/70/46
f 20/71/47 17/70/47 47/69/47
f 48/68/48 19/72/48 23/73/48
f 17/70/49 52/74/49 48/68/49
f 19/72/50 48/68/50 52/74/50
f 21/59/51 22/75/51 57/76/51
f 25/77/52 53/78/52 24/79/52
f 13/80/53 12/81/53 54/57/53
f 54/57/54 55/56/54 13/80/54
f 57/76/55 56/82/55 9/32/55
f 41/34/56 9/32/56 56/82/56
f 20/58/57 15/83/57 17/84/57
f 5/85/58 20/58/58 10/86/58
f 20/60/59 21/59/59 10/37/59
f 9/32/60 10/37/60 21/59/60
f 21/59/61 57/76/61 9/32/61
f 53/78/62 25/77/62 22/87/62
f 25/88/63 59/89/63 56/90/63
f 58/91/64 56/90/64 59/89/64
f 19/92/65 3/93/65 18/94/65
f 15/95/66 3/93/66 19/92/66
f 60/54/67 55/56/67 46/52/67
f 55/56/68 60/54/68 13/80/68
f 16/96/69 13/80/69 60/54/69
f 16/96/70 60/54/70 11/97/70
f 26/7/71 27/4/71 4/3/71
f 36/98/72 34/9/72 5/10/72
f 7/22/73 28/18/73 29/20/73
f 43/99/74 2/16/74 31/15/74
f 4/17/75 30/14/75 2/16/75
f 7/22/76 26/100/76 3/23/76
f 26/100/77 7/22/77 29/20/77
f 5/21/78 26/100/78 29/20/78
f 6/26/79 8/101/79 38/11/79
f 36/12/80 38/11/80 8/101/80
f 8/28/81 6/42/81 33/29/81
f 3/2/82 15/36/82 32/102/82
f 2/103/83 43/5/83 11/48/83
f 36/98/84 12/31/84 34/9/84
f 6/26/85 37/25/85 39/33/85
f 1/35/86 32/102/86 15/36/86
f 40/41/87 8/104/87 14/105/87
f 40/41/88 36/39/88 8/104/88
f 58/40/89 40/41/89 41/106/89
f 39/33/90 41/34/90 40/107/90
f 14/108/91 6/26/91 39/33/91
f 14/43/92 42/45/92 40/46/92
f 11/109/93 3/93/93 2/110/93
f 45/55/94 44/50/94 46/52/94
f 12/81/95 20/58/95 54/57/95
f 23/73/96 47/69/96 48/68/96
f 51/64/97 50/65/97 49/62/97
f 60/67/98 51/64/98 18/63/98
f 44/66/99 18/63/99 49/62/99
f 23/73/100 19/72/100 45/111/100
f 45/111/101 47/69/101 23/73/101
f 20/71/102 47/69/102 45/111/102
f 22/75/103 21/59/103 24/112/103
f 12/61/104 24/112/104 21/59/104
f 24/79/105 53/78/105 22/87/105
f 19/51/106 52/113/106 15/83/106
f 18/114/107 11/97/107 60/54/107
f 22/75/108 56/82/108 57/76/108
f 17/84/109 15/83/109 52/113/109
f 15/83/110 20/58/110 5/85/110
f 58/40/111 24/115/111 12/38/111
f 58/40/112 25/116/112 24/115/112
f 58/117/113 41/34/113 56/82/113
f 25/118/114 56/82/114 22/75/114
f 25/88/115 58/91/115 59/89/115
f 11/109/116 18/94/116 3/93/116
